<mxfile host="Electron" modified="2025-04-26T09:16:40.890Z" agent="Mozilla/5.0 (Windows NT 10.0; Win64; x64) AppleWebKit/537.36 (KHTML, like Gecko) draw.io/22.1.2 Chrome/114.0.5735.289 Electron/25.9.4 Safari/537.36" etag="tdwhBPXCwvAyJ7E6XhWy" version="22.1.2" type="device">
  <diagram name="Page-1" id="73PYHnkMWjdvTnTkCXTh">
    <mxGraphModel dx="1728" dy="997" grid="1" gridSize="10" guides="1" tooltips="1" connect="1" arrows="1" fold="1" page="1" pageScale="1" pageWidth="850" pageHeight="1100" math="0" shadow="0">
      <root>
        <mxCell id="0" />
        <mxCell id="1" parent="0" />
        <mxCell id="59AgvJcLuvJnNVT1P-3v-4" value="" style="shape=or;whiteSpace=wrap;html=1;fillColor=#dae8fc;strokeColor=#6c8ebf;rotation=-90;" parent="1" vertex="1">
          <mxGeometry x="210" y="410" width="140" height="280" as="geometry" />
        </mxCell>
        <mxCell id="59AgvJcLuvJnNVT1P-3v-5" value="" style="shape=or;whiteSpace=wrap;html=1;rotation=90;fillColor=#d5e8d4;strokeColor=#82b366;" parent="1" vertex="1">
          <mxGeometry x="210" y="550" width="140" height="280" as="geometry" />
        </mxCell>
        <mxCell id="59AgvJcLuvJnNVT1P-3v-2" value="Domain" style="ellipse;whiteSpace=wrap;html=1;aspect=fixed;fillColor=#f8cecc;strokeColor=#b85450;" parent="1" vertex="1">
          <mxGeometry x="180" y="520" width="200" height="200" as="geometry" />
        </mxCell>
        <mxCell id="59AgvJcLuvJnNVT1P-3v-1" value="&lt;b&gt;Domain&lt;/b&gt;" style="ellipse;whiteSpace=wrap;html=1;aspect=fixed;fillColor=#fff2cc;strokeColor=#d6b656;" parent="1" vertex="1">
          <mxGeometry x="230" y="570" width="100" height="100" as="geometry" />
        </mxCell>
        <mxCell id="59AgvJcLuvJnNVT1P-3v-10" value="" style="endArrow=classic;html=1;rounded=0;strokeWidth=2;" parent="1" edge="1">
          <mxGeometry width="50" height="50" relative="1" as="geometry">
            <mxPoint x="279.71000000000004" y="740.29" as="sourcePoint" />
            <mxPoint x="279.71000000000004" y="700" as="targetPoint" />
          </mxGeometry>
        </mxCell>
        <mxCell id="59AgvJcLuvJnNVT1P-3v-12" value="" style="endArrow=classic;html=1;rounded=0;strokeWidth=2;" parent="1" edge="1">
          <mxGeometry width="50" height="50" relative="1" as="geometry">
            <mxPoint x="279.71000000000004" y="500" as="sourcePoint" />
            <mxPoint x="279.71000000000004" y="540" as="targetPoint" />
          </mxGeometry>
        </mxCell>
        <mxCell id="59AgvJcLuvJnNVT1P-3v-13" value="Infrastructure" style="text;html=1;strokeColor=none;fillColor=none;align=center;verticalAlign=middle;whiteSpace=wrap;rounded=0;fontStyle=1" parent="1" vertex="1">
          <mxGeometry x="250" y="730" width="60" height="30" as="geometry" />
        </mxCell>
        <mxCell id="59AgvJcLuvJnNVT1P-3v-14" value="Presentation" style="text;html=1;strokeColor=none;fillColor=none;align=center;verticalAlign=middle;whiteSpace=wrap;rounded=0;fontStyle=1" parent="1" vertex="1">
          <mxGeometry x="250" y="480" width="60" height="30" as="geometry" />
        </mxCell>
        <mxCell id="59AgvJcLuvJnNVT1P-3v-16" value="" style="endArrow=classic;html=1;rounded=0;strokeWidth=2;" parent="1" edge="1">
          <mxGeometry width="50" height="50" relative="1" as="geometry">
            <mxPoint x="280" y="560" as="sourcePoint" />
            <mxPoint x="279.71000000000004" y="590" as="targetPoint" />
          </mxGeometry>
        </mxCell>
        <mxCell id="59AgvJcLuvJnNVT1P-3v-17" value="Application" style="text;html=1;strokeColor=none;fillColor=none;align=center;verticalAlign=middle;whiteSpace=wrap;rounded=0;fontStyle=1" parent="1" vertex="1">
          <mxGeometry x="250" y="535" width="60" height="30" as="geometry" />
        </mxCell>
        <mxCell id="59AgvJcLuvJnNVT1P-3v-18" value="Layers in Ports &amp;amp; Adapters / Hexagonal Architecture" style="shape=umlFrame;whiteSpace=wrap;html=1;pointerEvents=0;width=240;height=50;fontStyle=1;fontSize=14;strokeWidth=2;" parent="1" vertex="1">
          <mxGeometry x="100" y="390" width="360" height="410" as="geometry" />
        </mxCell>
        <mxCell id="_jukSftoeUl8cFLZuLSr-1" value="Keys" style="rounded=0;whiteSpace=wrap;html=1;fillColor=none;labelPosition=center;verticalLabelPosition=top;align=center;verticalAlign=bottom;fontStyle=1;strokeWidth=2;" parent="1" vertex="1">
          <mxGeometry x="650" y="1580" width="290" height="110" as="geometry" />
        </mxCell>
        <mxCell id="_jukSftoeUl8cFLZuLSr-2" value="Application" style="ellipse;whiteSpace=wrap;html=1;aspect=fixed;labelPosition=center;verticalLabelPosition=top;align=center;verticalAlign=bottom;fontStyle=1;fillColor=#f8cecc;strokeColor=#b85450;strokeWidth=2;" parent="1" vertex="1">
          <mxGeometry x="534.38" y="1094.38" width="151.25" height="151.25" as="geometry" />
        </mxCell>
        <mxCell id="_jukSftoeUl8cFLZuLSr-3" value="Domain" style="ellipse;whiteSpace=wrap;html=1;aspect=fixed;labelPosition=center;verticalLabelPosition=top;align=center;verticalAlign=bottom;fontStyle=1;fillColor=#fff2cc;strokeColor=#d6b656;strokeWidth=2;" parent="1" vertex="1">
          <mxGeometry x="160" y="1290" width="350" height="350" as="geometry" />
        </mxCell>
        <mxCell id="_jukSftoeUl8cFLZuLSr-4" value="Entitiy" style="rounded=0;whiteSpace=wrap;html=1;fillColor=#e1d5e7;strokeColor=#9673a6;strokeWidth=2;" parent="1" vertex="1">
          <mxGeometry x="340" y="1510" width="80" height="30" as="geometry" />
        </mxCell>
        <mxCell id="_jukSftoeUl8cFLZuLSr-5" value="has" style="rounded=0;orthogonalLoop=1;jettySize=auto;html=1;exitX=0.5;exitY=1;exitDx=0;exitDy=0;entryX=0.5;entryY=0;entryDx=0;entryDy=0;fillColor=#f5f5f5;strokeColor=#666666;endArrow=diamondThin;endFill=0;labelBackgroundColor=#FFF2CC;" parent="1" source="_jukSftoeUl8cFLZuLSr-7" target="_jukSftoeUl8cFLZuLSr-8" edge="1">
          <mxGeometry relative="1" as="geometry" />
        </mxCell>
        <mxCell id="_jukSftoeUl8cFLZuLSr-6" value="has" style="rounded=0;orthogonalLoop=1;jettySize=auto;html=1;exitX=0.5;exitY=1;exitDx=0;exitDy=0;fillColor=#f5f5f5;strokeColor=#666666;endArrow=diamondThin;endFill=0;strokeWidth=1;labelBackgroundColor=#FFF2CC;" parent="1" source="_jukSftoeUl8cFLZuLSr-7" target="_jukSftoeUl8cFLZuLSr-4" edge="1">
          <mxGeometry relative="1" as="geometry" />
        </mxCell>
        <mxCell id="_jukSftoeUl8cFLZuLSr-7" value="Aggregate" style="rounded=0;whiteSpace=wrap;html=1;fillColor=#e1d5e7;strokeColor=#9673a6;strokeWidth=2;" parent="1" vertex="1">
          <mxGeometry x="260" y="1430" width="80" height="30" as="geometry" />
        </mxCell>
        <mxCell id="_jukSftoeUl8cFLZuLSr-8" value="Value Object" style="rounded=0;whiteSpace=wrap;html=1;fillColor=#e1d5e7;strokeColor=#9673a6;strokeWidth=2;" parent="1" vertex="1">
          <mxGeometry x="200" y="1530" width="90" height="30" as="geometry" />
        </mxCell>
        <mxCell id="_jukSftoeUl8cFLZuLSr-9" value="uses" style="rounded=0;orthogonalLoop=1;jettySize=auto;html=1;exitX=0.5;exitY=1;exitDx=0;exitDy=0;fillColor=#f5f5f5;strokeColor=#666666;endArrow=open;endFill=0;labelBackgroundColor=#FFF2CC;" parent="1" source="_jukSftoeUl8cFLZuLSr-11" target="_jukSftoeUl8cFLZuLSr-7" edge="1">
          <mxGeometry relative="1" as="geometry" />
        </mxCell>
        <mxCell id="_jukSftoeUl8cFLZuLSr-10" value="uses" style="rounded=0;orthogonalLoop=1;jettySize=auto;html=1;exitX=0.5;exitY=1;exitDx=0;exitDy=0;entryX=0.5;entryY=0;entryDx=0;entryDy=0;fillColor=#f5f5f5;strokeColor=#666666;endArrow=open;endFill=0;labelBackgroundColor=#FFF2CC;" parent="1" source="_jukSftoeUl8cFLZuLSr-11" target="_jukSftoeUl8cFLZuLSr-12" edge="1">
          <mxGeometry relative="1" as="geometry" />
        </mxCell>
        <mxCell id="_jukSftoeUl8cFLZuLSr-11" value="Domain&lt;br&gt;Services" style="rounded=0;whiteSpace=wrap;html=1;fillColor=#e1d5e7;strokeColor=#9673a6;strokeWidth=2;" parent="1" vertex="1">
          <mxGeometry x="320" y="1350" width="80" height="30" as="geometry" />
        </mxCell>
        <mxCell id="_jukSftoeUl8cFLZuLSr-12" value="&lt;font style=&quot;font-size: 10px;&quot;&gt;&amp;lt;&amp;lt;Port&amp;gt;&lt;/font&gt;&lt;br&gt;Repository&lt;br&gt;Interfaces" style="rounded=0;whiteSpace=wrap;html=1;fillColor=#e1d5e7;strokeColor=#9673a6;strokeWidth=2;" parent="1" vertex="1">
          <mxGeometry x="370" y="1420" width="90" height="50" as="geometry" />
        </mxCell>
        <mxCell id="_jukSftoeUl8cFLZuLSr-13" value="Infrastructure" style="ellipse;whiteSpace=wrap;html=1;aspect=fixed;labelPosition=center;verticalLabelPosition=top;align=center;verticalAlign=bottom;fontStyle=1;fillColor=#d5e8d4;strokeColor=#82b366;strokeWidth=2;" parent="1" vertex="1">
          <mxGeometry x="695" y="1305" width="170" height="170" as="geometry" />
        </mxCell>
        <mxCell id="_jukSftoeUl8cFLZuLSr-14" value="implements" style="rounded=0;orthogonalLoop=1;jettySize=auto;html=1;exitX=0;exitY=0.5;exitDx=0;exitDy=0;entryX=1;entryY=0.5;entryDx=0;entryDy=0;dashed=1;endArrow=block;endFill=0;" parent="1" source="_jukSftoeUl8cFLZuLSr-15" target="_jukSftoeUl8cFLZuLSr-12" edge="1">
          <mxGeometry relative="1" as="geometry" />
        </mxCell>
        <mxCell id="_jukSftoeUl8cFLZuLSr-15" value="&lt;font style=&quot;font-size: 10px;&quot;&gt;&amp;lt;&amp;lt;Adapter&amp;gt;&amp;gt;&lt;/font&gt;&lt;br&gt;Repository&lt;br&gt;Implementation" style="rounded=0;whiteSpace=wrap;html=1;fillColor=#e1d5e7;strokeColor=#9673a6;strokeWidth=2;" parent="1" vertex="1">
          <mxGeometry x="730" y="1368.1200000000001" width="100" height="43.75" as="geometry" />
        </mxCell>
        <mxCell id="_jukSftoeUl8cFLZuLSr-16" value="uses" style="rounded=0;orthogonalLoop=1;jettySize=auto;html=1;exitX=1;exitY=1;exitDx=0;exitDy=0;entryX=0.323;entryY=0.031;entryDx=0;entryDy=0;entryPerimeter=0;" parent="1" source="_jukSftoeUl8cFLZuLSr-2" target="_jukSftoeUl8cFLZuLSr-13" edge="1">
          <mxGeometry relative="1" as="geometry" />
        </mxCell>
        <mxCell id="_jukSftoeUl8cFLZuLSr-17" value="uses" style="rounded=0;orthogonalLoop=1;jettySize=auto;html=1;exitX=0;exitY=1;exitDx=0;exitDy=0;entryX=0.757;entryY=0.069;entryDx=0;entryDy=0;entryPerimeter=0;" parent="1" source="_jukSftoeUl8cFLZuLSr-2" target="_jukSftoeUl8cFLZuLSr-3" edge="1">
          <mxGeometry x="0.1899" y="5" relative="1" as="geometry">
            <mxPoint as="offset" />
          </mxGeometry>
        </mxCell>
        <mxCell id="_jukSftoeUl8cFLZuLSr-19" value="DDDs Tactical Patterns in Ports &amp;amp; Adapters&lt;br&gt;(Hexagonal Architecture)" style="shape=umlFrame;whiteSpace=wrap;html=1;pointerEvents=0;width=360;height=50;fontStyle=1;strokeWidth=2;fontSize=14;" parent="1" vertex="1">
          <mxGeometry x="100" y="840" width="860" height="870" as="geometry" />
        </mxCell>
        <mxCell id="_jukSftoeUl8cFLZuLSr-20" style="rounded=0;orthogonalLoop=1;jettySize=auto;html=1;entryX=1;entryY=0;entryDx=0;entryDy=0;" parent="1" source="_jukSftoeUl8cFLZuLSr-21" target="_jukSftoeUl8cFLZuLSr-23" edge="1">
          <mxGeometry relative="1" as="geometry" />
        </mxCell>
        <mxCell id="_jukSftoeUl8cFLZuLSr-21" value="Client" style="shape=umlActor;verticalLabelPosition=bottom;verticalAlign=top;html=1;outlineConnect=0;" parent="1" vertex="1">
          <mxGeometry x="535" y="920" width="30" height="60" as="geometry" />
        </mxCell>
        <mxCell id="_jukSftoeUl8cFLZuLSr-22" style="rounded=0;orthogonalLoop=1;jettySize=auto;html=1;exitX=1;exitY=0.5;exitDx=0;exitDy=0;entryX=0.029;entryY=0.312;entryDx=0;entryDy=0;entryPerimeter=0;" parent="1" source="_jukSftoeUl8cFLZuLSr-23" target="_jukSftoeUl8cFLZuLSr-2" edge="1">
          <mxGeometry relative="1" as="geometry" />
        </mxCell>
        <mxCell id="_jukSftoeUl8cFLZuLSr-23" value="Presentation" style="ellipse;whiteSpace=wrap;html=1;aspect=fixed;labelPosition=center;verticalLabelPosition=top;align=center;verticalAlign=bottom;fontStyle=1;fillColor=#dae8fc;strokeColor=#6c8ebf;strokeWidth=2;" parent="1" vertex="1">
          <mxGeometry x="180" y="970" width="220" height="220" as="geometry" />
        </mxCell>
        <mxCell id="_jukSftoeUl8cFLZuLSr-24" value="DDD Element" style="rounded=0;whiteSpace=wrap;html=1;fillColor=#e1d5e7;strokeColor=#9673a6;strokeWidth=2;" parent="1" vertex="1">
          <mxGeometry x="760" y="1620" width="90" height="30" as="geometry" />
        </mxCell>
        <mxCell id="_jukSftoeUl8cFLZuLSr-25" value="Layer" style="ellipse;whiteSpace=wrap;html=1;aspect=fixed;labelPosition=center;verticalLabelPosition=top;align=center;verticalAlign=bottom;fontStyle=1;strokeWidth=2;" parent="1" vertex="1">
          <mxGeometry x="680" y="1610" width="50" height="50" as="geometry" />
        </mxCell>
        <mxCell id="_jukSftoeUl8cFLZuLSr-27" value="Actor" style="shape=umlActor;verticalLabelPosition=bottom;verticalAlign=top;html=1;outlineConnect=0;" parent="1" vertex="1">
          <mxGeometry x="880" y="1600" width="30" height="60" as="geometry" />
        </mxCell>
        <mxCell id="_jukSftoeUl8cFLZuLSr-28" value="&lt;font style=&quot;font-size: 10px;&quot;&gt;&amp;lt;&amp;lt;Adapter&amp;gt;&amp;gt;&lt;/font&gt;&lt;br&gt;JSON API" style="rounded=0;whiteSpace=wrap;html=1;fillColor=#dae8fc;strokeColor=#6c8ebf;strokeWidth=2;" parent="1" vertex="1">
          <mxGeometry x="247.5" y="1058.75" width="80" height="42.5" as="geometry" />
        </mxCell>
        <mxCell id="_jukSftoeUl8cFLZuLSr-29" value="&lt;font style=&quot;font-size: 10px;&quot;&gt;&amp;lt;&amp;lt;Adapter&amp;gt;&amp;gt;&lt;/font&gt;&lt;br&gt;CLI" style="rounded=0;whiteSpace=wrap;html=1;fillColor=#dae8fc;strokeColor=#6c8ebf;strokeWidth=2;" parent="1" vertex="1">
          <mxGeometry x="247.5" y="1120" width="80" height="42.5" as="geometry" />
        </mxCell>
        <mxCell id="_jukSftoeUl8cFLZuLSr-43" value="uses" style="edgeStyle=orthogonalEdgeStyle;rounded=0;orthogonalLoop=1;jettySize=auto;html=1;exitX=0.5;exitY=1;exitDx=0;exitDy=0;entryX=0.5;entryY=0;entryDx=0;entryDy=0;fontSize=10;endArrow=open;endFill=0;dashed=1;" parent="1" source="_jukSftoeUl8cFLZuLSr-39" target="_jukSftoeUl8cFLZuLSr-40" edge="1">
          <mxGeometry x="-0.0417" relative="1" as="geometry">
            <mxPoint as="offset" />
          </mxGeometry>
        </mxCell>
        <mxCell id="_jukSftoeUl8cFLZuLSr-39" value="&lt;font style=&quot;font-size: 10px;&quot;&gt;&amp;lt;&amp;lt;Adapters&amp;gt;&amp;gt;&lt;/font&gt;&lt;br&gt;Presentation" style="rounded=0;whiteSpace=wrap;html=1;fillColor=#dae8fc;strokeColor=#6c8ebf;" parent="1" vertex="1">
          <mxGeometry x="688.12" y="421.25" width="160" height="40" as="geometry" />
        </mxCell>
        <mxCell id="_jukSftoeUl8cFLZuLSr-44" value="uses" style="rounded=0;orthogonalLoop=1;jettySize=auto;html=1;exitX=0.5;exitY=1;exitDx=0;exitDy=0;entryX=0.5;entryY=0;entryDx=0;entryDy=0;fontSize=10;endArrow=open;endFill=0;dashed=1;" parent="1" source="_jukSftoeUl8cFLZuLSr-40" target="_jukSftoeUl8cFLZuLSr-41" edge="1">
          <mxGeometry relative="1" as="geometry" />
        </mxCell>
        <mxCell id="_jukSftoeUl8cFLZuLSr-40" value="&amp;lt;&amp;lt;Ports&amp;gt;&amp;gt;&lt;br&gt;Application" style="rounded=0;whiteSpace=wrap;html=1;fillColor=#f8cecc;strokeColor=#b85450;" parent="1" vertex="1">
          <mxGeometry x="688.12" y="521.25" width="160" height="40" as="geometry" />
        </mxCell>
        <mxCell id="_jukSftoeUl8cFLZuLSr-41" value="&amp;lt;&amp;lt;Ports&amp;gt;&amp;gt;&lt;br&gt;Domain" style="rounded=0;whiteSpace=wrap;html=1;fillColor=#fff2cc;strokeColor=#d6b656;" parent="1" vertex="1">
          <mxGeometry x="698.12" y="621.25" width="140" height="40" as="geometry" />
        </mxCell>
        <mxCell id="_jukSftoeUl8cFLZuLSr-54" value="Implements" style="edgeStyle=orthogonalEdgeStyle;rounded=0;orthogonalLoop=1;jettySize=auto;html=1;exitX=0.5;exitY=0;exitDx=0;exitDy=0;endArrow=block;endFill=0;dashed=1;fontSize=9;" parent="1" source="_jukSftoeUl8cFLZuLSr-42" target="_jukSftoeUl8cFLZuLSr-41" edge="1">
          <mxGeometry x="-0.0943" y="-10" relative="1" as="geometry">
            <mxPoint as="offset" />
          </mxGeometry>
        </mxCell>
        <mxCell id="_jukSftoeUl8cFLZuLSr-42" value="&lt;font style=&quot;font-size: 10px;&quot;&gt;&amp;lt;&amp;lt;Adapters&amp;gt;&amp;gt;&lt;/font&gt;&lt;br&gt;Infrastructure" style="rounded=0;whiteSpace=wrap;html=1;fillColor=#d5e8d4;strokeColor=#82b366;" parent="1" vertex="1">
          <mxGeometry x="698.12" y="721.25" width="140" height="40" as="geometry" />
        </mxCell>
        <mxCell id="_jukSftoeUl8cFLZuLSr-47" value="Layers in Ports &amp;amp; Adapters (Hexagonal Architecture)" style="shape=umlFrame;whiteSpace=wrap;html=1;pointerEvents=0;width=240;height=50;fontStyle=1;fontSize=14;strokeWidth=2;" parent="1" vertex="1">
          <mxGeometry x="620" y="330" width="340" height="471.25" as="geometry" />
        </mxCell>
        <mxCell id="_jukSftoeUl8cFLZuLSr-50" value="A client can be anything that uses any kind of a public interface of the application" style="shape=note;strokeWidth=2;fontSize=12;size=20;whiteSpace=wrap;html=1;fillColor=#fff2cc;strokeColor=#d6b656;fontColor=#666600;spacing=5;align=left;" parent="1" vertex="1">
          <mxGeometry x="590" y="920" width="137.5" height="80" as="geometry" />
        </mxCell>
        <mxCell id="_jukSftoeUl8cFLZuLSr-57" value="has" style="rounded=0;orthogonalLoop=1;jettySize=auto;html=1;exitX=0;exitY=0.5;exitDx=0;exitDy=0;fillColor=#f5f5f5;strokeColor=#666666;endArrow=diamondThin;endFill=0;strokeWidth=1;labelBackgroundColor=#FFF2CC;entryX=1;entryY=0.5;entryDx=0;entryDy=0;" parent="1" source="_jukSftoeUl8cFLZuLSr-4" target="_jukSftoeUl8cFLZuLSr-8" edge="1">
          <mxGeometry relative="1" as="geometry">
            <mxPoint x="310" y="1470" as="sourcePoint" />
            <mxPoint x="372" y="1520" as="targetPoint" />
          </mxGeometry>
        </mxCell>
        <mxCell id="_jukSftoeUl8cFLZuLSr-64" value="&lt;font style=&quot;font-size: 10px;&quot;&gt;&amp;lt;&amp;lt;Adapter&amp;gt;&amp;gt;&lt;/font&gt;&lt;br&gt;SSR HTML" style="rounded=0;whiteSpace=wrap;html=1;fillColor=#dae8fc;strokeColor=#6c8ebf;strokeWidth=2;" parent="1" vertex="1">
          <mxGeometry x="247.5" y="1000" width="80" height="42.5" as="geometry" />
        </mxCell>
        <mxCell id="_jukSftoeUl8cFLZuLSr-74" style="edgeStyle=orthogonalEdgeStyle;rounded=0;orthogonalLoop=1;jettySize=auto;html=1;entryX=0;entryY=0.75;entryDx=0;entryDy=0;curved=1;" parent="1" source="_jukSftoeUl8cFLZuLSr-31" target="_jukSftoeUl8cFLZuLSr-71" edge="1">
          <mxGeometry relative="1" as="geometry" />
        </mxCell>
        <mxCell id="_jukSftoeUl8cFLZuLSr-31" value="&lt;font style=&quot;font-size: 10px;&quot;&gt;&amp;lt;&amp;lt;Adapter&amp;gt;&amp;gt;&lt;/font&gt;&lt;br&gt;SSR HTML" style="rounded=0;whiteSpace=wrap;html=1;fillColor=#dae8fc;strokeColor=#6c8ebf;strokeWidth=2;" parent="1" vertex="1">
          <mxGeometry x="1195" y="840" width="80" height="42.5" as="geometry" />
        </mxCell>
        <mxCell id="_jukSftoeUl8cFLZuLSr-73" style="edgeStyle=orthogonalEdgeStyle;rounded=0;orthogonalLoop=1;jettySize=auto;html=1;exitX=1;exitY=0.5;exitDx=0;exitDy=0;curved=1;entryX=0;entryY=0.25;entryDx=0;entryDy=0;" parent="1" source="_jukSftoeUl8cFLZuLSr-62" target="_jukSftoeUl8cFLZuLSr-71" edge="1">
          <mxGeometry relative="1" as="geometry">
            <mxPoint x="1330" y="780" as="targetPoint" />
          </mxGeometry>
        </mxCell>
        <mxCell id="_jukSftoeUl8cFLZuLSr-62" value="&lt;font style=&quot;font-size: 10px;&quot;&gt;&amp;lt;&amp;lt;Adapter&amp;gt;&amp;gt;&lt;/font&gt;&lt;br&gt;JSON API" style="rounded=0;whiteSpace=wrap;html=1;fillColor=#dae8fc;strokeColor=#6c8ebf;strokeWidth=2;" parent="1" vertex="1">
          <mxGeometry x="1195" y="677.5" width="80" height="42.5" as="geometry" />
        </mxCell>
        <mxCell id="_jukSftoeUl8cFLZuLSr-72" style="edgeStyle=orthogonalEdgeStyle;rounded=0;orthogonalLoop=1;jettySize=auto;html=1;curved=1;entryX=0;entryY=0.5;entryDx=0;entryDy=0;" parent="1" source="_jukSftoeUl8cFLZuLSr-63" target="_jukSftoeUl8cFLZuLSr-71" edge="1">
          <mxGeometry relative="1" as="geometry" />
        </mxCell>
        <mxCell id="_jukSftoeUl8cFLZuLSr-63" value="&lt;font style=&quot;font-size: 10px;&quot;&gt;&amp;lt;&amp;lt;Adapter&amp;gt;&amp;gt;&lt;/font&gt;&lt;br&gt;CLI" style="rounded=0;whiteSpace=wrap;html=1;fillColor=#dae8fc;strokeColor=#6c8ebf;strokeWidth=2;" parent="1" vertex="1">
          <mxGeometry x="1195" y="758.75" width="80" height="42.5" as="geometry" />
        </mxCell>
        <mxCell id="_jukSftoeUl8cFLZuLSr-79" style="edgeStyle=orthogonalEdgeStyle;rounded=0;orthogonalLoop=1;jettySize=auto;html=1;exitX=0;exitY=0.5;exitDx=0;exitDy=0;entryX=1;entryY=0.5;entryDx=0;entryDy=0;curved=1;" parent="1" source="_jukSftoeUl8cFLZuLSr-70" target="_jukSftoeUl8cFLZuLSr-76" edge="1">
          <mxGeometry relative="1" as="geometry" />
        </mxCell>
        <mxCell id="_jukSftoeUl8cFLZuLSr-83" style="edgeStyle=orthogonalEdgeStyle;rounded=0;orthogonalLoop=1;jettySize=auto;html=1;exitX=1;exitY=0.5;exitDx=0;exitDy=0;curved=1;" parent="1" source="_jukSftoeUl8cFLZuLSr-70" target="_jukSftoeUl8cFLZuLSr-81" edge="1">
          <mxGeometry relative="1" as="geometry" />
        </mxCell>
        <mxCell id="_jukSftoeUl8cFLZuLSr-70" value="&lt;font style=&quot;font-size: 10px;&quot;&gt;&amp;lt;&amp;lt;Adapter&amp;gt;&amp;gt;&lt;/font&gt;&lt;br&gt;Repository&lt;br&gt;Implementation" style="rounded=0;whiteSpace=wrap;html=1;fillColor=#d5e8d4;strokeColor=#82b366;strokeWidth=2;" parent="1" vertex="1">
          <mxGeometry x="1610" y="795.94" width="100" height="43.75" as="geometry" />
        </mxCell>
        <mxCell id="_jukSftoeUl8cFLZuLSr-77" style="edgeStyle=orthogonalEdgeStyle;rounded=0;orthogonalLoop=1;jettySize=auto;html=1;exitX=1;exitY=0.5;exitDx=0;exitDy=0;entryX=0;entryY=0.5;entryDx=0;entryDy=0;curved=1;" parent="1" source="_jukSftoeUl8cFLZuLSr-71" target="_jukSftoeUl8cFLZuLSr-75" edge="1">
          <mxGeometry relative="1" as="geometry">
            <mxPoint x="1428.28" y="784.38" as="sourcePoint" />
            <mxPoint x="1473.28" y="729.38" as="targetPoint" />
          </mxGeometry>
        </mxCell>
        <mxCell id="_jukSftoeUl8cFLZuLSr-78" style="edgeStyle=orthogonalEdgeStyle;rounded=0;orthogonalLoop=1;jettySize=auto;html=1;exitX=1;exitY=0.5;exitDx=0;exitDy=0;entryX=0;entryY=0.5;entryDx=0;entryDy=0;curved=1;" parent="1" source="_jukSftoeUl8cFLZuLSr-71" target="_jukSftoeUl8cFLZuLSr-76" edge="1">
          <mxGeometry relative="1" as="geometry" />
        </mxCell>
        <mxCell id="_jukSftoeUl8cFLZuLSr-88" style="edgeStyle=orthogonalEdgeStyle;rounded=0;orthogonalLoop=1;jettySize=auto;html=1;exitX=0.5;exitY=0;exitDx=0;exitDy=0;entryX=0;entryY=0.5;entryDx=0;entryDy=0;curved=1;" parent="1" source="_jukSftoeUl8cFLZuLSr-71" target="_jukSftoeUl8cFLZuLSr-87" edge="1">
          <mxGeometry relative="1" as="geometry" />
        </mxCell>
        <mxCell id="_jukSftoeUl8cFLZuLSr-89" style="edgeStyle=orthogonalEdgeStyle;rounded=0;orthogonalLoop=1;jettySize=auto;html=1;exitX=0.5;exitY=1;exitDx=0;exitDy=0;entryX=0;entryY=0.5;entryDx=0;entryDy=0;curved=1;" parent="1" source="_jukSftoeUl8cFLZuLSr-71" target="_jukSftoeUl8cFLZuLSr-86" edge="1">
          <mxGeometry relative="1" as="geometry" />
        </mxCell>
        <mxCell id="_jukSftoeUl8cFLZuLSr-71" value="&lt;font style=&quot;font-size: 10px;&quot;&gt;&amp;lt;&amp;lt;Port&amp;gt;&amp;gt;&lt;/font&gt;&lt;br&gt;UseCases" style="rounded=0;whiteSpace=wrap;html=1;fillColor=#f8cecc;strokeColor=#b85450;strokeWidth=2;" parent="1" vertex="1">
          <mxGeometry x="1340" y="760" width="80" height="40" as="geometry" />
        </mxCell>
        <mxCell id="_jukSftoeUl8cFLZuLSr-75" value="Aggregate" style="rounded=0;whiteSpace=wrap;html=1;fillColor=#fff2cc;strokeColor=#d6b656;strokeWidth=2;" parent="1" vertex="1">
          <mxGeometry x="1465" y="720" width="80" height="30" as="geometry" />
        </mxCell>
        <mxCell id="_jukSftoeUl8cFLZuLSr-85" style="edgeStyle=orthogonalEdgeStyle;rounded=0;orthogonalLoop=1;jettySize=auto;html=1;exitX=0.5;exitY=0;exitDx=0;exitDy=0;" parent="1" source="_jukSftoeUl8cFLZuLSr-76" target="_jukSftoeUl8cFLZuLSr-75" edge="1">
          <mxGeometry relative="1" as="geometry" />
        </mxCell>
        <mxCell id="_jukSftoeUl8cFLZuLSr-76" value="&lt;font style=&quot;font-size: 10px;&quot;&gt;&amp;lt;&amp;lt;Port&amp;gt;&lt;/font&gt;&lt;br&gt;Repository&lt;br&gt;Interfaces" style="rounded=0;whiteSpace=wrap;html=1;fillColor=#fff2cc;strokeColor=#d6b656;strokeWidth=2;" parent="1" vertex="1">
          <mxGeometry x="1460" y="803.13" width="90" height="50" as="geometry" />
        </mxCell>
        <mxCell id="_jukSftoeUl8cFLZuLSr-80" value="HTTP&lt;br&gt;API" style="shape=cylinder3;whiteSpace=wrap;html=1;boundedLbl=1;backgroundOutline=1;size=15;" parent="1" vertex="1">
          <mxGeometry x="1795" y="730" width="50" height="66.67" as="geometry" />
        </mxCell>
        <mxCell id="_jukSftoeUl8cFLZuLSr-81" value="SQL&lt;br&gt;DB" style="shape=cylinder3;whiteSpace=wrap;html=1;boundedLbl=1;backgroundOutline=1;size=15;" parent="1" vertex="1">
          <mxGeometry x="1795" y="828.9599999999998" width="50" height="66.67" as="geometry" />
        </mxCell>
        <mxCell id="_jukSftoeUl8cFLZuLSr-82" style="edgeStyle=orthogonalEdgeStyle;rounded=0;orthogonalLoop=1;jettySize=auto;html=1;exitX=1;exitY=0.5;exitDx=0;exitDy=0;entryX=0;entryY=0.5;entryDx=0;entryDy=0;entryPerimeter=0;curved=1;" parent="1" source="_jukSftoeUl8cFLZuLSr-70" target="_jukSftoeUl8cFLZuLSr-80" edge="1">
          <mxGeometry relative="1" as="geometry" />
        </mxCell>
        <mxCell id="_jukSftoeUl8cFLZuLSr-94" style="edgeStyle=orthogonalEdgeStyle;rounded=0;orthogonalLoop=1;jettySize=auto;html=1;entryX=0;entryY=0.5;entryDx=0;entryDy=0;curved=1;" parent="1" source="_jukSftoeUl8cFLZuLSr-86" target="_jukSftoeUl8cFLZuLSr-92" edge="1">
          <mxGeometry relative="1" as="geometry" />
        </mxCell>
        <mxCell id="_jukSftoeUl8cFLZuLSr-95" style="edgeStyle=orthogonalEdgeStyle;rounded=0;orthogonalLoop=1;jettySize=auto;html=1;exitX=1;exitY=0.5;exitDx=0;exitDy=0;entryX=0;entryY=0.5;entryDx=0;entryDy=0;curved=1;" parent="1" source="_jukSftoeUl8cFLZuLSr-86" target="_jukSftoeUl8cFLZuLSr-93" edge="1">
          <mxGeometry relative="1" as="geometry" />
        </mxCell>
        <mxCell id="_jukSftoeUl8cFLZuLSr-86" value="&lt;font style=&quot;font-size: 10px;&quot;&gt;&amp;lt;&amp;lt;Adapter&amp;gt;&amp;gt;&lt;/font&gt;&lt;br&gt;Mailer" style="rounded=0;whiteSpace=wrap;html=1;fillColor=#d5e8d4;strokeColor=#82b366;strokeWidth=2;" parent="1" vertex="1">
          <mxGeometry x="1610" y="952.92" width="100" height="43.75" as="geometry" />
        </mxCell>
        <mxCell id="_jukSftoeUl8cFLZuLSr-91" style="edgeStyle=orthogonalEdgeStyle;rounded=0;orthogonalLoop=1;jettySize=auto;html=1;exitX=1;exitY=0.5;exitDx=0;exitDy=0;curved=1;" parent="1" source="_jukSftoeUl8cFLZuLSr-87" target="_jukSftoeUl8cFLZuLSr-90" edge="1">
          <mxGeometry relative="1" as="geometry" />
        </mxCell>
        <mxCell id="_jukSftoeUl8cFLZuLSr-87" value="&lt;font style=&quot;font-size: 10px;&quot;&gt;&amp;lt;&amp;lt;Adapter&amp;gt;&amp;gt;&lt;/font&gt;&lt;br&gt;MessageBus" style="rounded=0;whiteSpace=wrap;html=1;fillColor=#d5e8d4;strokeColor=#82b366;strokeWidth=2;" parent="1" vertex="1">
          <mxGeometry x="1610" y="610" width="100" height="43.75" as="geometry" />
        </mxCell>
        <mxCell id="_jukSftoeUl8cFLZuLSr-90" value="" style="sketch=0;points=[[0,0,0],[0.25,0,0],[0.5,0,0],[0.75,0,0],[1,0,0],[0,1,0],[0.25,1,0],[0.5,1,0],[0.75,1,0],[1,1,0],[0,0.25,0],[0,0.5,0],[0,0.75,0],[1,0.25,0],[1,0.5,0],[1,0.75,0]];outlineConnect=0;fontColor=#232F3E;fillColor=#E7157B;strokeColor=#ffffff;dashed=0;verticalLabelPosition=bottom;verticalAlign=top;align=center;html=1;fontSize=12;fontStyle=0;aspect=fixed;shape=mxgraph.aws4.resourceIcon;resIcon=mxgraph.aws4.mq;" parent="1" vertex="1">
          <mxGeometry x="1791" y="643.88" width="58" height="58" as="geometry" />
        </mxCell>
        <mxCell id="_jukSftoeUl8cFLZuLSr-92" value="MailJet" style="shape=message;html=1;html=1;outlineConnect=0;labelPosition=center;verticalLabelPosition=bottom;align=center;verticalAlign=top;" parent="1" vertex="1">
          <mxGeometry x="1805" y="920.0000000000001" width="40" height="26.67" as="geometry" />
        </mxCell>
        <mxCell id="_jukSftoeUl8cFLZuLSr-93" value="SMTP" style="shape=message;html=1;html=1;outlineConnect=0;labelPosition=center;verticalLabelPosition=bottom;align=center;verticalAlign=top;" parent="1" vertex="1">
          <mxGeometry x="1805" y="996.6700000000001" width="40" height="26.67" as="geometry" />
        </mxCell>
        <mxCell id="_jukSftoeUl8cFLZuLSr-96" value="" style="sketch=0;points=[[0,0,0],[0.25,0,0],[0.5,0,0],[0.75,0,0],[1,0,0],[0,1,0],[0.25,1,0],[0.5,1,0],[0.75,1,0],[1,1,0],[0,0.25,0],[0,0.5,0],[0,0.75,0],[1,0.25,0],[1,0.5,0],[1,0.75,0]];outlineConnect=0;fontColor=#232F3E;fillColor=#8C4FFF;strokeColor=#ffffff;dashed=0;verticalLabelPosition=bottom;verticalAlign=top;align=center;html=1;fontSize=12;fontStyle=0;aspect=fixed;shape=mxgraph.aws4.resourceIcon;resIcon=mxgraph.aws4.managed_streaming_for_kafka;" parent="1" vertex="1">
          <mxGeometry x="1790" y="561.88" width="60" height="60" as="geometry" />
        </mxCell>
        <mxCell id="_jukSftoeUl8cFLZuLSr-97" style="edgeStyle=orthogonalEdgeStyle;rounded=0;orthogonalLoop=1;jettySize=auto;html=1;exitX=1;exitY=0.5;exitDx=0;exitDy=0;entryX=0;entryY=0.5;entryDx=0;entryDy=0;entryPerimeter=0;curved=1;" parent="1" source="_jukSftoeUl8cFLZuLSr-87" target="_jukSftoeUl8cFLZuLSr-96" edge="1">
          <mxGeometry relative="1" as="geometry" />
        </mxCell>
        <mxCell id="lX78wYAZ8RO4K5wPLeU1-1" value="Implements" style="rounded=0;orthogonalLoop=1;jettySize=auto;html=1;exitX=1;exitY=0.5;exitDx=0;exitDy=0;endArrow=block;endFill=0;dashed=1;fontSize=9;entryX=1;entryY=0.5;entryDx=0;entryDy=0;edgeStyle=orthogonalEdgeStyle;" edge="1" parent="1" source="_jukSftoeUl8cFLZuLSr-42" target="_jukSftoeUl8cFLZuLSr-40">
          <mxGeometry x="-0.0943" y="-10" relative="1" as="geometry">
            <mxPoint as="offset" />
            <mxPoint x="820.12" y="666.25" as="sourcePoint" />
            <mxPoint x="744.12" y="666.25" as="targetPoint" />
            <Array as="points">
              <mxPoint x="890" y="741.25" />
              <mxPoint x="890" y="541.25" />
            </Array>
          </mxGeometry>
        </mxCell>
      </root>
    </mxGraphModel>
  </diagram>
</mxfile>
